<svg xmlns="http://www.w3.org/2000/svg" width="860" height="124" viewBox="0 0 860 124" font-family="-apple-system, BlinkMacSystemFont, 'Segoe UI', 'Noto Sans', Helvetica, Arial, sans-serif">
<title>Other projects: AbioticEditor and DownUnderDiscordBot</title>
<style>@keyframes wipe{from{transform:none}to{transform:translateX(100%)}}
.wipe{transform-box:fill-box;animation:wipe 1.1s linear 8.65s forwards}
@keyframes dust{0%{opacity:1;transform:none}100%{opacity:0;transform:translate(var(--dx),var(--dy))}}
.p{opacity:0;animation:dust 1.6s ease-out forwards}
@keyframes leave{to{opacity:0}}
.old{animation:leave .18s ease-in 10s forwards}
@keyframes settle{from{opacity:0;transform:translateX(var(--dx))}to{opacity:1;transform:none}}
.new{opacity:0;animation:settle .65s cubic-bezier(.2,.8,.2,1) 10.18s forwards}
@media (prefers-reduced-motion: reduce){.wipe,.p,.old,.new{animation:none}.p,.new{display:none}}</style>
<mask id="m0" maskUnits="userSpaceOnUse" x="0" y="0" width="423" height="124"><rect class="wipe" x="0" y="0" width="423" height="124" fill="#fff"/></mask><g mask="url(#m0)"><g transform="translate(0.0 0)"><rect x="0.5" y="0.5" width="422" height="123" rx="10" fill="#f6f8fa" stroke="#d0d7de"/>
<text x="18" y="34" font-size="17" font-weight="700" fill="#0969da">AbioticEditor</text>
<text x="18" y="54" font-size="11.5" fill="#59636e">C# · .NET</text>
<text x="18" y="80" font-size="13" fill="#1f2328">Save editor for Abiotic Factor that runs in the browser</text><text x="18" y="99" font-size="13" fill="#1f2328">or as a desktop app, with a CLI and a plugin host.</text></g></g><g class="old"><g transform="translate(437.0 0)"><rect x="0.5" y="0.5" width="422" height="123" rx="10" fill="#f6f8fa" stroke="#d0d7de"/>
<text x="18" y="34" font-size="17" font-weight="700" fill="#0969da">DownUnderDiscordBot</text>
<text x="18" y="54" font-size="11.5" fill="#59636e">TypeScript · Discord.js · Docker</text>
<text x="18" y="80" font-size="13" fill="#1f2328">Discord music bot with a Tauri-based desktop companion</text><text x="18" y="99" font-size="13" fill="#1f2328">app.</text></g></g><g class="new" style="--dx:437.0px"><g transform="translate(0.0 0)"><rect x="0.5" y="0.5" width="859" height="123" rx="10" fill="#f6f8fa" stroke="#d0d7de"/>
<text x="18" y="34" font-size="17" font-weight="700" fill="#0969da">DownUnderDiscordBot</text>
<text x="18" y="54" font-size="11.5" fill="#59636e">TypeScript · Discord.js · Docker</text>
<text x="18" y="80" font-size="13" fill="#1f2328">Discord music bot with a Tauri-based desktop companion app.</text></g></g>
<rect class="p" x="353.7" y="39.5" width="2.4" height="2.4" fill="#59636e" style="--dx:111px;--dy:-50px;animation-delay:9.65s"/><rect class="p" x="302.8" y="113.7" width="2.2" height="2.2" fill="#59636e" style="--dx:145px;--dy:-76px;animation-delay:9.40s"/><rect class="p" x="69.0" y="102.7" width="2.7" height="2.7" fill="#d0d7de" style="--dx:96px;--dy:-89px;animation-delay:9.01s"/><rect class="p" x="119.8" y="105.0" width="2.9" height="2.9" fill="#0969da" style="--dx:133px;--dy:-103px;animation-delay:9.16s"/><rect class="p" x="221.1" y="122.3" width="2.7" height="2.7" fill="#59636e" style="--dx:71px;--dy:-93px;animation-delay:9.31s"/><rect class="p" x="335.5" y="98.4" width="4.7" height="4.7" fill="#0969da" style="--dx:161px;--dy:-60px;animation-delay:9.66s"/><rect class="p" x="257.3" y="67.6" width="2.2" height="2.2" fill="#d0d7de" style="--dx:96px;--dy:-52px;animation-delay:9.43s"/><rect class="p" x="323.2" y="104.0" width="4.1" height="4.1" fill="#1f2328" style="--dx:126px;--dy:-64px;animation-delay:9.53s"/><rect class="p" x="274.7" y="108.6" width="4.2" height="4.2" fill="#0969da" style="--dx:44px;--dy:-106px;animation-delay:9.37s"/><rect class="p" x="259.1" y="1.3" width="3.7" height="3.7" fill="#0969da" style="--dx:55px;--dy:-55px;animation-delay:9.46s"/><rect class="p" x="78.4" y="98.7" width="3.9" height="3.9" fill="#0969da" style="--dx:63px;--dy:-76px;animation-delay:8.87s"/><rect class="p" x="318.0" y="10.5" width="3.3" height="3.3" fill="#d0d7de" style="--dx:166px;--dy:-79px;animation-delay:9.64s"/><rect class="p" x="209.3" y="117.6" width="2.7" height="2.7" fill="#59636e" style="--dx:156px;--dy:-43px;animation-delay:9.31s"/><rect class="p" x="376.8" y="85.0" width="4.7" height="4.7" fill="#1f2328" style="--dx:161px;--dy:-117px;animation-delay:9.64s"/><rect class="p" x="202.5" y="54.8" width="2.7" height="2.7" fill="#1f2328" style="--dx:102px;--dy:-45px;animation-delay:9.22s"/><rect class="p" x="268.2" y="50.9" width="4.2" height="4.2" fill="#0969da" style="--dx:160px;--dy:-59px;animation-delay:9.37s"/><rect class="p" x="405.6" y="43.7" width="4.4" height="4.4" fill="#d0d7de" style="--dx:169px;--dy:-54px;animation-delay:9.76s"/><rect class="p" x="361.2" y="79.8" width="4.5" height="4.5" fill="#d0d7de" style="--dx:152px;--dy:-34px;animation-delay:9.55s"/><rect class="p" x="343.9" y="57.8" width="2.2" height="2.2" fill="#1f2328" style="--dx:60px;--dy:-86px;animation-delay:9.64s"/><rect class="p" x="264.3" y="36.6" width="3.5" height="3.5" fill="#1f2328" style="--dx:119px;--dy:-115px;animation-delay:9.32s"/><rect class="p" x="52.9" y="85.9" width="3.7" height="3.7" fill="#0969da" style="--dx:164px;--dy:-95px;animation-delay:8.99s"/><rect class="p" x="147.5" y="55.6" width="4.2" height="4.2" fill="#59636e" style="--dx:67px;--dy:-43px;animation-delay:9.13s"/><rect class="p" x="356.3" y="7.2" width="4.5" height="4.5" fill="#59636e" style="--dx:70px;--dy:-74px;animation-delay:9.63s"/><rect class="p" x="321.9" y="118.6" width="3.4" height="3.4" fill="#1f2328" style="--dx:176px;--dy:-32px;animation-delay:9.52s"/><rect class="p" x="14.3" y="110.7" width="3.9" height="3.9" fill="#0969da" style="--dx:127px;--dy:-111px;animation-delay:8.79s"/><rect class="p" x="70.9" y="100.3" width="3.5" height="3.5" fill="#d0d7de" style="--dx:178px;--dy:-99px;animation-delay:8.84s"/><rect class="p" x="302.5" y="111.1" width="4.9" height="4.9" fill="#59636e" style="--dx:89px;--dy:-59px;animation-delay:9.61s"/><rect class="p" x="160.6" y="102.7" width="4.5" height="4.5" fill="#1f2328" style="--dx:40px;--dy:-59px;animation-delay:9.09s"/><rect class="p" x="185.6" y="32.5" width="5.4" height="5.4" fill="#d0d7de" style="--dx:123px;--dy:-39px;animation-delay:9.24s"/><rect class="p" x="125.3" y="98.9" width="3.4" height="3.4" fill="#0969da" style="--dx:151px;--dy:-89px;animation-delay:9.07s"/><rect class="p" x="87.7" y="123.1" width="3.1" height="3.1" fill="#59636e" style="--dx:105px;--dy:-37px;animation-delay:9.10s"/><rect class="p" x="237.0" y="22.2" width="5.4" height="5.4" fill="#0969da" style="--dx:87px;--dy:-35px;animation-delay:9.24s"/><rect class="p" x="117.9" y="0.8" width="2.5" height="2.5" fill="#59636e" style="--dx:113px;--dy:-118px;animation-delay:9.06s"/><rect class="p" x="116.1" y="73.3" width="2.6" height="2.6" fill="#0969da" style="--dx:98px;--dy:-96px;animation-delay:9.16s"/><rect class="p" x="277.3" y="5.5" width="4.8" height="4.8" fill="#1f2328" style="--dx:75px;--dy:-36px;animation-delay:9.54s"/><rect class="p" x="61.1" y="111.3" width="2.1" height="2.1" fill="#0969da" style="--dx:129px;--dy:-82px;animation-delay:8.84s"/><rect class="p" x="132.1" y="84.9" width="5.5" height="5.5" fill="#1f2328" style="--dx:124px;--dy:-111px;animation-delay:9.08s"/><rect class="p" x="225.1" y="40.0" width="2.6" height="2.6" fill="#0969da" style="--dx:40px;--dy:-32px;animation-delay:9.25s"/><rect class="p" x="138.0" y="4.3" width="4.5" height="4.5" fill="#1f2328" style="--dx:167px;--dy:-80px;animation-delay:9.15s"/><rect class="p" x="364.6" y="7.1" width="4.2" height="4.2" fill="#1f2328" style="--dx:179px;--dy:-89px;animation-delay:9.54s"/><rect class="p" x="48.6" y="60.4" width="4.7" height="4.7" fill="#d0d7de" style="--dx:57px;--dy:-65px;animation-delay:8.87s"/><rect class="p" x="396.3" y="92.9" width="2.1" height="2.1" fill="#0969da" style="--dx:85px;--dy:-35px;animation-delay:9.81s"/><rect class="p" x="300.8" y="16.3" width="4.3" height="4.3" fill="#d0d7de" style="--dx:174px;--dy:-88px;animation-delay:9.57s"/><rect class="p" x="348.1" y="98.4" width="4.8" height="4.8" fill="#59636e" style="--dx:51px;--dy:-120px;animation-delay:9.64s"/><rect class="p" x="395.6" y="108.1" width="4.2" height="4.2" fill="#59636e" style="--dx:79px;--dy:-61px;animation-delay:9.68s"/><rect class="p" x="340.1" y="115.9" width="4.7" height="4.7" fill="#0969da" style="--dx:100px;--dy:-62px;animation-delay:9.63s"/><rect class="p" x="110.8" y="21.3" width="2.2" height="2.2" fill="#d0d7de" style="--dx:76px;--dy:-87px;animation-delay:9.02s"/><rect class="p" x="255.2" y="112.7" width="3.6" height="3.6" fill="#d0d7de" style="--dx:46px;--dy:-70px;animation-delay:9.30s"/><rect class="p" x="214.5" y="76.9" width="3.4" height="3.4" fill="#59636e" style="--dx:92px;--dy:-116px;animation-delay:9.22s"/><rect class="p" x="190.3" y="119.1" width="2.1" height="2.1" fill="#1f2328" style="--dx:55px;--dy:-111px;animation-delay:9.25s"/><rect class="p" x="257.8" y="103.9" width="3.4" height="3.4" fill="#d0d7de" style="--dx:77px;--dy:-47px;animation-delay:9.35s"/><rect class="p" x="68.6" y="119.0" width="3.3" height="3.3" fill="#59636e" style="--dx:175px;--dy:-97px;animation-delay:8.94s"/><rect class="p" x="244.0" y="68.0" width="5.0" height="5.0" fill="#59636e" style="--dx:174px;--dy:-62px;animation-delay:9.26s"/><rect class="p" x="198.7" y="4.9" width="4.7" height="4.7" fill="#59636e" style="--dx:127px;--dy:-103px;animation-delay:9.24s"/><rect class="p" x="328.6" y="41.2" width="2.6" height="2.6" fill="#d0d7de" style="--dx:73px;--dy:-102px;animation-delay:9.51s"/><rect class="p" x="189.6" y="8.9" width="4.1" height="4.1" fill="#0969da" style="--dx:74px;--dy:-45px;animation-delay:9.15s"/><rect class="p" x="141.9" y="37.2" width="4.7" height="4.7" fill="#1f2328" style="--dx:99px;--dy:-113px;animation-delay:9.00s"/><rect class="p" x="255.2" y="115.7" width="5.4" height="5.4" fill="#1f2328" style="--dx:47px;--dy:-37px;animation-delay:9.41s"/><rect class="p" x="29.6" y="55.5" width="3.9" height="3.9" fill="#d0d7de" style="--dx:77px;--dy:-82px;animation-delay:8.84s"/><rect class="p" x="367.0" y="84.1" width="4.4" height="4.4" fill="#59636e" style="--dx:124px;--dy:-104px;animation-delay:9.63s"/><rect class="p" x="127.3" y="116.1" width="4.1" height="4.1" fill="#d0d7de" style="--dx:61px;--dy:-108px;animation-delay:9.10s"/><rect class="p" x="349.7" y="44.7" width="2.1" height="2.1" fill="#d0d7de" style="--dx:172px;--dy:-74px;animation-delay:9.54s"/><rect class="p" x="84.3" y="50.7" width="4.0" height="4.0" fill="#59636e" style="--dx:99px;--dy:-37px;animation-delay:9.01s"/><rect class="p" x="259.5" y="115.7" width="3.7" height="3.7" fill="#d0d7de" style="--dx:173px;--dy:-47px;animation-delay:9.27s"/><rect class="p" x="407.4" y="81.9" width="5.5" height="5.5" fill="#59636e" style="--dx:174px;--dy:-118px;animation-delay:9.63s"/><rect class="p" x="397.5" y="17.3" width="3.1" height="3.1" fill="#59636e" style="--dx:125px;--dy:-91px;animation-delay:9.76s"/><rect class="p" x="165.7" y="79.5" width="4.4" height="4.4" fill="#1f2328" style="--dx:87px;--dy:-102px;animation-delay:9.29s"/><rect class="p" x="0.8" y="97.5" width="4.4" height="4.4" fill="#d0d7de" style="--dx:179px;--dy:-46px;animation-delay:8.77s"/><rect class="p" x="106.3" y="18.6" width="2.3" height="2.3" fill="#0969da" style="--dx:81px;--dy:-34px;animation-delay:9.09s"/><rect class="p" x="416.8" y="74.1" width="3.7" height="3.7" fill="#1f2328" style="--dx:121px;--dy:-56px;animation-delay:9.65s"/><rect class="p" x="143.8" y="52.4" width="5.1" height="5.1" fill="#1f2328" style="--dx:89px;--dy:-54px;animation-delay:9.21s"/><rect class="p" x="93.9" y="29.1" width="3.8" height="3.8" fill="#0969da" style="--dx:163px;--dy:-113px;animation-delay:9.06s"/><rect class="p" x="85.7" y="80.4" width="2.3" height="2.3" fill="#d0d7de" style="--dx:45px;--dy:-47px;animation-delay:9.09s"/><rect class="p" x="305.5" y="15.0" width="4.3" height="4.3" fill="#0969da" style="--dx:112px;--dy:-112px;animation-delay:9.49s"/><rect class="p" x="144.8" y="17.0" width="2.2" height="2.2" fill="#0969da" style="--dx:69px;--dy:-119px;animation-delay:9.21s"/><rect class="p" x="409.9" y="111.8" width="5.1" height="5.1" fill="#1f2328" style="--dx:165px;--dy:-117px;animation-delay:9.84s"/><rect class="p" x="25.9" y="85.5" width="2.2" height="2.2" fill="#1f2328" style="--dx:134px;--dy:-78px;animation-delay:8.91s"/><rect class="p" x="14.9" y="65.8" width="3.7" height="3.7" fill="#59636e" style="--dx:78px;--dy:-106px;animation-delay:8.74s"/><rect class="p" x="137.3" y="62.1" width="2.5" height="2.5" fill="#59636e" style="--dx:129px;--dy:-102px;animation-delay:9.01s"/><rect class="p" x="131.9" y="13.9" width="4.7" height="4.7" fill="#d0d7de" style="--dx:149px;--dy:-99px;animation-delay:9.00s"/><rect class="p" x="222.0" y="26.0" width="5.1" height="5.1" fill="#d0d7de" style="--dx:65px;--dy:-68px;animation-delay:9.37s"/><rect class="p" x="189.0" y="76.5" width="2.3" height="2.3" fill="#0969da" style="--dx:98px;--dy:-117px;animation-delay:9.28s"/><rect class="p" x="13.1" y="112.8" width="4.7" height="4.7" fill="#0969da" style="--dx:133px;--dy:-72px;animation-delay:8.88s"/><rect class="p" x="22.6" y="64.9" width="3.5" height="3.5" fill="#0969da" style="--dx:124px;--dy:-36px;animation-delay:8.93s"/><rect class="p" x="386.4" y="23.0" width="2.3" height="2.3" fill="#d0d7de" style="--dx:134px;--dy:-112px;animation-delay:9.64s"/><rect class="p" x="55.3" y="96.3" width="5.3" height="5.3" fill="#59636e" style="--dx:114px;--dy:-111px;animation-delay:8.93s"/><rect class="p" x="9.2" y="57.1" width="5.4" height="5.4" fill="#59636e" style="--dx:72px;--dy:-47px;animation-delay:8.75s"/><rect class="p" x="287.8" y="19.4" width="3.9" height="3.9" fill="#0969da" style="--dx:102px;--dy:-45px;animation-delay:9.36s"/><rect class="p" x="284.4" y="59.3" width="3.2" height="3.2" fill="#0969da" style="--dx:143px;--dy:-106px;animation-delay:9.40s"/><rect class="p" x="294.9" y="70.8" width="2.2" height="2.2" fill="#0969da" style="--dx:144px;--dy:-68px;animation-delay:9.44s"/><rect class="p" x="67.4" y="98.3" width="2.7" height="2.7" fill="#59636e" style="--dx:92px;--dy:-42px;animation-delay:8.95s"/><rect class="p" x="372.5" y="45.4" width="2.0" height="2.0" fill="#0969da" style="--dx:123px;--dy:-55px;animation-delay:9.64s"/><rect class="p" x="86.4" y="96.5" width="4.8" height="4.8" fill="#0969da" style="--dx:147px;--dy:-35px;animation-delay:8.94s"/><rect class="p" x="62.4" y="63.6" width="3.0" height="3.0" fill="#0969da" style="--dx:106px;--dy:-62px;animation-delay:9.02s"/><rect class="p" x="368.2" y="44.7" width="4.6" height="4.6" fill="#1f2328" style="--dx:160px;--dy:-104px;animation-delay:9.60s"/><rect class="p" x="342.1" y="34.3" width="4.8" height="4.8" fill="#59636e" style="--dx:131px;--dy:-35px;animation-delay:9.50s"/><rect class="p" x="408.1" y="2.3" width="4.1" height="4.1" fill="#0969da" style="--dx:52px;--dy:-58px;animation-delay:9.67s"/><rect class="p" x="62.6" y="112.7" width="5.5" height="5.5" fill="#59636e" style="--dx:81px;--dy:-78px;animation-delay:8.85s"/><rect class="p" x="246.3" y="89.0" width="2.9" height="2.9" fill="#0969da" style="--dx:52px;--dy:-115px;animation-delay:9.36s"/><rect class="p" x="407.7" y="78.5" width="3.5" height="3.5" fill="#0969da" style="--dx:55px;--dy:-49px;animation-delay:9.62s"/><rect class="p" x="203.4" y="122.8" width="5.1" height="5.1" fill="#59636e" style="--dx:119px;--dy:-47px;animation-delay:9.16s"/><rect class="p" x="153.0" y="29.5" width="3.6" height="3.6" fill="#0969da" style="--dx:102px;--dy:-60px;animation-delay:9.02s"/><rect class="p" x="282.3" y="105.5" width="2.3" height="2.3" fill="#1f2328" style="--dx:142px;--dy:-69px;animation-delay:9.55s"/><rect class="p" x="12.8" y="10.4" width="5.2" height="5.2" fill="#59636e" style="--dx:92px;--dy:-92px;animation-delay:8.76s"/><rect class="p" x="396.7" y="113.1" width="3.7" height="3.7" fill="#1f2328" style="--dx:162px;--dy:-43px;animation-delay:9.79s"/><rect class="p" x="108.3" y="20.1" width="2.5" height="2.5" fill="#59636e" style="--dx:118px;--dy:-39px;animation-delay:8.98s"/><rect class="p" x="214.0" y="7.6" width="3.0" height="3.0" fill="#0969da" style="--dx:156px;--dy:-110px;animation-delay:9.41s"/><rect class="p" x="75.6" y="98.0" width="4.8" height="4.8" fill="#0969da" style="--dx:154px;--dy:-61px;animation-delay:8.92s"/><rect class="p" x="308.1" y="72.0" width="5.2" height="5.2" fill="#1f2328" style="--dx:146px;--dy:-50px;animation-delay:9.58s"/><rect class="p" x="302.7" y="19.5" width="2.7" height="2.7" fill="#0969da" style="--dx:65px;--dy:-48px;animation-delay:9.42s"/><rect class="p" x="131.0" y="2.8" width="3.3" height="3.3" fill="#d0d7de" style="--dx:93px;--dy:-96px;animation-delay:9.01s"/><rect class="p" x="95.2" y="30.5" width="4.4" height="4.4" fill="#d0d7de" style="--dx:80px;--dy:-112px;animation-delay:9.11s"/><rect class="p" x="138.9" y="101.1" width="4.0" height="4.0" fill="#d0d7de" style="--dx:134px;--dy:-108px;animation-delay:9.11s"/><rect class="p" x="120.6" y="34.4" width="3.0" height="3.0" fill="#1f2328" style="--dx:85px;--dy:-77px;animation-delay:9.06s"/><rect class="p" x="277.8" y="14.2" width="5.3" height="5.3" fill="#1f2328" style="--dx:83px;--dy:-35px;animation-delay:9.51s"/><rect class="p" x="43.5" y="97.8" width="4.4" height="4.4" fill="#1f2328" style="--dx:59px;--dy:-96px;animation-delay:8.85s"/><rect class="p" x="274.9" y="74.3" width="4.7" height="4.7" fill="#59636e" style="--dx:174px;--dy:-75px;animation-delay:9.52s"/><rect class="p" x="172.4" y="58.1" width="4.8" height="4.8" fill="#1f2328" style="--dx:178px;--dy:-58px;animation-delay:9.12s"/><rect class="p" x="123.5" y="120.2" width="2.1" height="2.1" fill="#1f2328" style="--dx:61px;--dy:-83px;animation-delay:9.14s"/><rect class="p" x="17.1" y="87.9" width="2.6" height="2.6" fill="#1f2328" style="--dx:133px;--dy:-43px;animation-delay:8.78s"/><rect class="p" x="82.6" y="108.9" width="3.4" height="3.4" fill="#0969da" style="--dx:130px;--dy:-59px;animation-delay:8.89s"/><rect class="p" x="136.3" y="110.7" width="5.1" height="5.1" fill="#1f2328" style="--dx:124px;--dy:-116px;animation-delay:9.14s"/><rect class="p" x="228.6" y="1.0" width="4.3" height="4.3" fill="#d0d7de" style="--dx:113px;--dy:-80px;animation-delay:9.40s"/><rect class="p" x="46.2" y="56.6" width="2.8" height="2.8" fill="#59636e" style="--dx:50px;--dy:-101px;animation-delay:8.89s"/><rect class="p" x="18.2" y="43.2" width="4.8" height="4.8" fill="#0969da" style="--dx:166px;--dy:-101px;animation-delay:8.72s"/><rect class="p" x="255.8" y="37.6" width="3.7" height="3.7" fill="#1f2328" style="--dx:179px;--dy:-119px;animation-delay:9.49s"/><rect class="p" x="118.2" y="17.6" width="2.9" height="2.9" fill="#1f2328" style="--dx:85px;--dy:-65px;animation-delay:9.09s"/><rect class="p" x="151.0" y="75.7" width="3.1" height="3.1" fill="#59636e" style="--dx:142px;--dy:-90px;animation-delay:9.09s"/><rect class="p" x="264.8" y="76.5" width="4.9" height="4.9" fill="#d0d7de" style="--dx:54px;--dy:-118px;animation-delay:9.40s"/><rect class="p" x="93.6" y="1.6" width="2.4" height="2.4" fill="#59636e" style="--dx:114px;--dy:-42px;animation-delay:9.02s"/><rect class="p" x="356.8" y="47.1" width="3.9" height="3.9" fill="#59636e" style="--dx:51px;--dy:-84px;animation-delay:9.64s"/><rect class="p" x="401.3" y="105.8" width="4.3" height="4.3" fill="#1f2328" style="--dx:72px;--dy:-53px;animation-delay:9.61s"/><rect class="p" x="121.3" y="1.9" width="2.4" height="2.4" fill="#0969da" style="--dx:77px;--dy:-33px;animation-delay:9.00s"/><rect class="p" x="9.0" y="105.1" width="3.4" height="3.4" fill="#0969da" style="--dx:116px;--dy:-79px;animation-delay:8.82s"/><rect class="p" x="60.1" y="78.1" width="4.8" height="4.8" fill="#d0d7de" style="--dx:127px;--dy:-43px;animation-delay:8.80s"/><rect class="p" x="327.9" y="26.2" width="4.1" height="4.1" fill="#59636e" style="--dx:169px;--dy:-49px;animation-delay:9.65s"/><rect class="p" x="281.3" y="13.5" width="4.5" height="4.5" fill="#d0d7de" style="--dx:119px;--dy:-53px;animation-delay:9.35s"/><rect class="p" x="15.8" y="47.5" width="4.9" height="4.9" fill="#1f2328" style="--dx:129px;--dy:-104px;animation-delay:8.72s"/><rect class="p" x="281.2" y="121.9" width="2.2" height="2.2" fill="#1f2328" style="--dx:169px;--dy:-115px;animation-delay:9.34s"/><rect class="p" x="75.6" y="61.3" width="2.5" height="2.5" fill="#d0d7de" style="--dx:122px;--dy:-113px;animation-delay:9.03s"/><rect class="p" x="313.6" y="91.0" width="5.5" height="5.5" fill="#1f2328" style="--dx:134px;--dy:-91px;animation-delay:9.40s"/><rect class="p" x="343.8" y="89.4" width="5.4" height="5.4" fill="#59636e" style="--dx:81px;--dy:-96px;animation-delay:9.56s"/><rect class="p" x="108.1" y="15.2" width="2.9" height="2.9" fill="#d0d7de" style="--dx:49px;--dy:-52px;animation-delay:8.96s"/><rect class="p" x="260.3" y="62.8" width="3.6" height="3.6" fill="#1f2328" style="--dx:96px;--dy:-102px;animation-delay:9.45s"/><rect class="p" x="334.4" y="80.0" width="5.4" height="5.4" fill="#d0d7de" style="--dx:103px;--dy:-114px;animation-delay:9.47s"/><rect class="p" x="196.5" y="105.7" width="3.4" height="3.4" fill="#0969da" style="--dx:70px;--dy:-95px;animation-delay:9.16s"/><rect class="p" x="160.0" y="51.6" width="2.0" height="2.0" fill="#0969da" style="--dx:62px;--dy:-36px;animation-delay:9.24s"/><rect class="p" x="134.1" y="7.3" width="4.8" height="4.8" fill="#0969da" style="--dx:107px;--dy:-43px;animation-delay:8.98s"/><rect class="p" x="71.1" y="77.8" width="4.6" height="4.6" fill="#0969da" style="--dx:164px;--dy:-48px;animation-delay:9.00s"/><rect class="p" x="183.6" y="65.6" width="4.6" height="4.6" fill="#59636e" style="--dx:115px;--dy:-59px;animation-delay:9.13s"/><rect class="p" x="40.2" y="83.0" width="3.4" height="3.4" fill="#0969da" style="--dx:86px;--dy:-38px;animation-delay:8.90s"/><rect class="p" x="322.8" y="36.0" width="4.3" height="4.3" fill="#59636e" style="--dx:43px;--dy:-38px;animation-delay:9.53s"/><rect class="p" x="20.7" y="72.2" width="2.5" height="2.5" fill="#1f2328" style="--dx:56px;--dy:-80px;animation-delay:8.91s"/><rect class="p" x="74.0" y="88.0" width="4.9" height="4.9" fill="#59636e" style="--dx:173px;--dy:-66px;animation-delay:9.06s"/><rect class="p" x="58.2" y="119.9" width="2.4" height="2.4" fill="#59636e" style="--dx:106px;--dy:-34px;animation-delay:9.02s"/><rect class="p" x="257.4" y="40.4" width="3.4" height="3.4" fill="#0969da" style="--dx:127px;--dy:-32px;animation-delay:9.37s"/><rect class="p" x="360.9" y="29.5" width="3.9" height="3.9" fill="#1f2328" style="--dx:95px;--dy:-56px;animation-delay:9.72s"/><rect class="p" x="197.0" y="66.8" width="2.3" height="2.3" fill="#1f2328" style="--dx:130px;--dy:-90px;animation-delay:9.23s"/><rect class="p" x="145.5" y="6.8" width="4.5" height="4.5" fill="#d0d7de" style="--dx:144px;--dy:-80px;animation-delay:9.12s"/><rect class="p" x="83.5" y="23.8" width="3.4" height="3.4" fill="#1f2328" style="--dx:135px;--dy:-107px;animation-delay:9.04s"/><rect class="p" x="288.7" y="6.4" width="3.7" height="3.7" fill="#d0d7de" style="--dx:135px;--dy:-79px;animation-delay:9.54s"/><rect class="p" x="313.7" y="35.9" width="2.7" height="2.7" fill="#d0d7de" style="--dx:171px;--dy:-118px;animation-delay:9.62s"/><rect class="p" x="42.1" y="47.4" width="4.0" height="4.0" fill="#1f2328" style="--dx:167px;--dy:-85px;animation-delay:8.82s"/><rect class="p" x="204.1" y="79.3" width="5.3" height="5.3" fill="#59636e" style="--dx:99px;--dy:-115px;animation-delay:9.15s"/><rect class="p" x="159.0" y="114.1" width="4.0" height="4.0" fill="#59636e" style="--dx:131px;--dy:-116px;animation-delay:9.03s"/><rect class="p" x="191.9" y="55.5" width="5.3" height="5.3" fill="#d0d7de" style="--dx:131px;--dy:-97px;animation-delay:9.24s"/><rect class="p" x="191.4" y="14.3" width="4.6" height="4.6" fill="#d0d7de" style="--dx:137px;--dy:-111px;animation-delay:9.32s"/><rect class="p" x="417.9" y="3.3" width="4.8" height="4.8" fill="#1f2328" style="--dx:68px;--dy:-62px;animation-delay:9.87s"/><rect class="p" x="245.1" y="20.8" width="2.2" height="2.2" fill="#d0d7de" style="--dx:70px;--dy:-109px;animation-delay:9.40s"/><rect class="p" x="347.9" y="118.0" width="3.6" height="3.6" fill="#59636e" style="--dx:100px;--dy:-119px;animation-delay:9.57s"/><rect class="p" x="55.9" y="48.7" width="3.4" height="3.4" fill="#d0d7de" style="--dx:61px;--dy:-52px;animation-delay:8.89s"/><rect class="p" x="279.6" y="110.9" width="3.8" height="3.8" fill="#1f2328" style="--dx:44px;--dy:-62px;animation-delay:9.42s"/><rect class="p" x="398.4" y="122.3" width="2.2" height="2.2" fill="#d0d7de" style="--dx:173px;--dy:-42px;animation-delay:9.75s"/><rect class="p" x="127.2" y="113.3" width="4.0" height="4.0" fill="#59636e" style="--dx:54px;--dy:-35px;animation-delay:9.04s"/><rect class="p" x="292.8" y="97.7" width="4.4" height="4.4" fill="#0969da" style="--dx:135px;--dy:-39px;animation-delay:9.36s"/>
</svg>
